<svg width="400" height="300" viewBox="0 0 400 300" fill="none" xmlns="http://www.w3.org/2000/svg">
  <rect width="400" height="300" fill="#F3F4F6"/>
  <path d="M0 0H400V300H0V0Z" fill="#E5E7EB"/>
  <path d="M150 130C150 141.598 140.598 151 129 151C117.402 151 108 141.598 108 130C108 118.402 117.402 109 129 109C140.598 109 150 118.402 150 130Z" fill="#9CA3AF"/>
  <path d="M129 141C136.18 141 142 135.18 142 128C142 120.82 136.18 115 129 115C121.82 115 116 120.82 116 128C116 135.18 121.82 141 129 141Z" fill="#6B7280"/>
  <path d="M129 136C133.418 136 137 132.418 137 128C137 123.582 133.418 120 129 120C124.582 120 121 123.582 121 128C121 132.418 124.582 136 129 136Z" fill="#4B5563"/>
  <path d="M0 200L100 150L200 200L300 150L400 200V300H0V200Z" fill="#9CA3AF"/>
  <path d="M0 200L100 175L200 225L300 175L400 200" stroke="#6B7280" stroke-width="2"/>
</svg>
